<?xml version="1.0" encoding="utf-8"?>
<svg version="1.1" id="Livello_1" xmlns="http://www.w3.org/2000/svg" xmlns:xlink="http://www.w3.org/1999/xlink" x="0px" y="0px"
	 viewBox="0 0 20 24" style="enable-background:new 0 0 20 24;" xml:space="preserve">
	 
<style type="text/css">
	.st0{fill:#FFFFFF;}
</style>
<path class="st0" d="M15,17.8H5c-0.5,0-0.8-0.4-0.8-0.8V7c0-0.5,0.4-0.8,0.8-0.8h4.2c0.5,0,0.8-0.4,0.8-0.8S9.6,4.5,9.2,4.5h-5
	c-0.9,0-1.7,0.8-1.7,1.7v11.7c0,0.9,0.8,1.7,1.7,1.7h11.7c0.9,0,1.7-0.8,1.7-1.7v-5c0-0.5-0.4-0.8-0.8-0.8s-0.8,0.4-0.8,0.8V17
	C15.8,17.5,15.5,17.8,15,17.8z M11.7,5.3c0,0.5,0.4,0.8,0.8,0.8h2.2L7,13.8c-0.3,0.3-0.3,0.8,0,1.2c0.3,0.3,0.8,0.3,1.2,0l7.6-7.6
	v2.2c0,0.5,0.4,0.8,0.8,0.8s0.8-0.4,0.8-0.8V5.3c0-0.5-0.4-0.8-0.8-0.8h-4.2C12,4.5,11.7,4.9,11.7,5.3z"/>
</svg>



