<svg viewBox="0 0 20 22"
xmlns="http://www.w3.org/2000/svg" 
width="20px" 
color="invertedContrast" 
class="sc-grXZZQ hxxPRP"
fill="#08060c">
<path d="M10.0333 1.36361C10.087 1.36361 10.1407 1.37808 10.1889 1.40521L18.45 6.09817C18.5463 6.15242 18.6055 6.25369 18.6037 6.36039L18.5722 15.6939C18.5722 15.8024 18.513 15.9018 18.4167 15.9561L10.1241 20.5966C10.0778 20.6237 10.0222 20.6364 9.96852 20.6364C9.91481 20.6364 9.86111 20.6219 9.81296 20.5948L1.55186 15.9018C1.45556 15.8476 1.3963 15.7463 1.39815 15.6396L1.42964 6.30614C1.42964 6.19763 1.4889 6.09817 1.58519 6.04391L9.87778 1.4034C9.92407 1.37627 9.97778 1.36361 10.0333 1.36361ZM10.037 3.2297e-05C9.74259 -0.00177616 9.44815 0.0723708 9.18333 0.220665L0.890748 4.85937C0.361119 5.15596 0.0351931 5.70392 0.0314893 6.30071L7.89425e-06 15.6342C-0.00184396 16.2292 0.32223 16.7807 0.848155 17.081L9.10926 21.7739C9.37222 21.924 9.66667 21.9982 9.96296 22C10.2574 22.0018 10.5519 21.9276 10.8167 21.7793L19.1093 17.1388C19.6389 16.8422 19.9648 16.2943 19.9685 15.6975L20 6.36582C20.0018 5.77083 19.6778 5.21925 19.1518 4.91905L10.8907 0.22609C10.6259 0.0759877 10.3315 3.2297e-05 10.037 3.2297e-05Z"></path><path d="M11.711 5.08594H10.4999C10.4091 5.08594 10.3277 5.142 10.2962 5.22519L6.40359 15.6492C6.37767 15.7179 6.42952 15.7902 6.50544 15.7902H7.71655C7.80729 15.7902 7.88878 15.7342 7.92026 15.651L11.8147 5.22519C11.8369 5.15828 11.7851 5.08594 11.711 5.08594ZM9.59248 5.08594H8.38137C8.29063 5.08594 8.20915 5.142 8.17766 5.22519L4.28507 15.6492C4.25915 15.7179 4.311 15.7902 4.38693 15.7902H5.59804C5.68878 15.7902 5.77026 15.7342 5.80174 15.651L9.69618 5.22519C9.72025 5.15828 9.6684 5.08594 9.59248 5.08594ZM11.161 9.12785C11.1258 9.03562 10.9925 9.03562 10.9573 9.12785L10.3277 10.8133C10.311 10.8604 10.311 10.911 10.3277 10.958L12.0814 15.6528C12.1128 15.736 12.1943 15.792 12.2851 15.792H13.4962C13.5721 15.792 13.624 15.7197 13.598 15.651L11.161 9.12785ZM15.7147 15.6492L12.2203 6.29399C12.1851 6.20176 12.0517 6.20176 12.0166 6.29399L11.3869 7.97948C11.3703 8.0265 11.3703 8.07713 11.3869 8.12415L14.1999 15.6528C14.2314 15.736 14.3128 15.792 14.4036 15.792H15.6147C15.6869 15.7902 15.7406 15.7179 15.7147 15.6492Z"></path>
</svg>